Patient4_TMGait_0pt4_01_right_28_EMG.mot
version=1
nRows=29
nColumns=33
inDegrees=no
endheader
time	1LAddLong	2LGlutMax	3LGlutMed	4LIliopsoas	5LSemiMemb	6LBicFemLong	7LRecFem	8LVastMed	9LVastLat	10LGasMed	11LTibAnt	12lTibPost	13LPeroneusLong	14LSol	15LExtDigLong	16LFlexDigLong	17RAddLong	18RGlutMax	19RGlutMed	20RIliopsoas	21RSemiMemb	22RBicFemLong	23RRecFem	24RVastMed	25RVastLat	26RGasMed	27RTibAnt	28RTibPost	29RPeroneusLong	30RSol	31RExtDigLong	32RFlexDigLong
37.03	-0.005341	0.13138	0.00885	0.006409	0.010986	-0.058594	-0.037689	-0.019989	0.42374	0.001526	-0.096436	0.012665	0.015259	0.048523	-0.35645	-0.025482	0.067902	-0.27405	-0.089874	0.14572	0.02121	-0.012817	-0.34927	-0.047455	0.004272	-0.012512	0.047607	-0.00946	0.18692	-0.085449	-0.00412	-0.016632
37.031	0.10346	0.098419	-0.015869	0.00351	0.031128	-0.12238	-0.036316	0.002136	0.42908	0.022278	0.14358	0.022888	-0.045013	-0.026398	-0.1416	-0.014801	0.050812	-0.28641	-0.064392	0.18616	0.026855	0.06424	-0.37125	-0.030212	0.011139	-0.015259	0.14526	-0.00351	0.24323	-0.051117	-0.007172	-0.015717
37.032	0.059357	0.099335	-0.024719	0.005035	0.025787	-0.19501	-0.14832	0.02243	0.46555	0.025787	0.1326	0.013885	-0.018921	-0.10315	0.15442	-0.007477	0.046692	-0.30991	-0.074615	-0.010223	0.020294	0.057983	-0.42541	0.048523	0.027924	-0.011139	0.14267	-0.00946	0.10117	-0.028839	-0.003967	-0.024567
37.033	0.013275	0.076752	-0.019379	-0.011292	-0.050049	-0.19623	-0.22949	0.038605	0.36331	0.045929	0.068054	0.10315	-0.052032	-0.17853	-0.38711	-0.008087	0.038452	-0.32028	-0.04425	-0.070496	-0.023499	-0.007477	-0.41534	0.07431	0.004883	-0.019226	0.000916	-0.011749	0.006256	-0.048065	-0.004883	-0.028687
37.034	0.034943	0.083313	-0.047302	0.005798	-0.028229	-0.091858	-0.26245	0.036621	0.34241	0.033875	0.034485	0.076904	-0.028992	-0.1413	-0.61111	-0.00885	0.017395	-0.28503	-0.17044	-0.002899	0.071869	-0.12314	-0.47653	0.063629	0.029907	-0.015106	-0.066833	-0.004883	-0.1355	-0.063171	-0.001526	-0.025635
37.035	0.022278	0.080261	-0.055389	0.015259	0.078888	-0.029297	-0.21011	0.005798	0.25085	0.013733	-0.011292	0.016937	-0.007935	-0.046539	-0.2948	-0.001831	0.024109	-0.24277	-0.11719	0.044556	0.099487	-0.22888	-0.43274	0.044861	0.00824	-0.006256	0.088654	-0.005646	0.11841	-0.097809	-0.003052	-0.023193
37.036	0.010834	0.11749	-0.070648	0.012207	0.014648	0.11032	-0.20371	-0.028839	0.076752	0.013733	-0.063934	0.007935	0.071106	0.019684	0.046844	0.002136	0.031891	-0.24796	-0.074158	0.13443	0.060425	-0.1294	-0.44281	0.028992	-0.003815	-0.002747	0.005798	-0.006866	0.06012	-0.14862	-0.000305	-0.021667
37.037	0.010681	0.14557	-0.063934	0.019684	-0.078735	0.17578	-0.1535	-0.044098	-0.11429	0.012054	0.015106	-0.000458	0.10635	-0.031891	-0.21866	0.007782	-0.000458	-0.22339	-0.091095	0.13931	0.045776	-0.057068	-0.43961	0.028076	-0.003052	-0.002441	-0.15656	-0.00885	-0.037842	-0.12512	-0.005188	-0.024109
37.038	0.00885	0.12177	-0.062561	0.016174	-0.013275	0.21225	0.14664	-0.063477	-0.25543	0.012665	0.049438	0.003204	0.014191	0.047455	-0.19043	0.01236	-0.010071	-0.27695	-0.083923	0.10407	0.065155	-0.033722	-0.47775	0.057678	-0.010529	0.00946	-0.36407	-0.006409	-0.089111	-0.088654	-0.000916	-0.025482
37.039	0.003204	0.046692	-0.013123	-0.012817	-0.012512	0.22675	0.34683	-0.029907	-0.19989	0.023193	0.010529	0.012665	0.0383	0.13367	0.10651	0.030975	-0.02594	-0.28641	-0.061188	0.037842	0.061646	-0.050354	-0.48279	0.057983	-0.010071	0.01297	-0.072937	-0.006714	-0.2066	0.013123	-0.007172	-0.013885
37.04	-0.004883	0.10361	0.10254	-0.012817	-0.028839	0.1741	0.36072	-0.000763	-0.19302	0.007782	-0.26276	0.010071	0.080719	0.045166	0.20828	0.069427	-0.031128	-0.28229	-0.084534	0.032959	0.071564	-0.058289	-0.47531	0.034943	-0.023651	0.017548	0.11047	-0.006866	-0.11154	-0.07019	-0.003357	-0.023956
37.041	-0.006561	0.12009	0.080414	-0.011444	0.042267	0.10757	0.30197	-0.000305	-0.37033	0.060272	-0.20157	-0.006256	-0.003357	-0.045776	0.26123	0.073242	-0.036011	-0.23514	-0.12619	0.040588	0.076294	-0.083923	-0.48172	0.053711	-0.037842	0.012207	0.18295	-0.005798	0.18585	-0.070953	-0.005035	-0.013428
37.042	-0.001526	0.14084	0.012512	-0.011902	-0.00473	0.043488	0.15182	0.01297	-0.57678	0.037079	-0.07019	-0.004578	-0.030518	-0.069733	0.28153	0.032043	-0.028076	-0.25314	-0.088196	0.042267	0.049286	-0.045166	-0.47516	0.072784	-0.032654	0.010529	0.057068	-0.003204	0.27466	-0.029755	0.000153	-0.013885
37.043	-0.010071	0.15778	-0.057831	-0.002594	-0.055084	0.028839	0.032654	0.007629	-0.66361	0.013428	-0.052643	0.000763	-0.010834	-0.079346	0.3775	-0.035858	-0.048828	-0.32227	0.044403	-0.003052	0.036163	0.038757	-0.50308	0.021515	-0.039825	0.023804	-0.13992	0.000153	-0.087891	-0.043335	-0.004883	-0.014801
37.044	-0.003815	0.1445	-0.11215	0.006561	0.004272	-0.023804	0	0.004425	-0.54474	0.036774	0.020294	-0.005798	-0.026855	0.019531	0.20554	-0.048523	-0.053711	-0.30441	-0.068512	-0.062561	0.01236	0.022583	-0.47409	0.036926	-0.041504	0.022736	-0.20187	0.004578	-0.008545	-0.026855	-0.005188	-0.013123
37.045	-0.002747	0.080872	-0.056458	0.011597	0.067749	0.04303	-0.010986	-0.009766	-0.39856	0.030823	0.15167	-0.007019	-0.066528	0.16052	0.11643	-0.028229	-0.058899	-0.22812	-0.030518	-0.067902	0.051422	-0.00412	-0.45471	0.031586	-0.032654	0.011597	-0.103	0.008545	-0.088196	-0.099487	-0.005493	-0.005188
37.046	-0.008087	0.10315	0.10559	-0.001373	0.081329	0.14999	-0.002289	-0.014343	-0.20248	0.026855	0.12589	-0.003967	-0.042572	0.15274	0.092316	-0.027313	-0.038605	-0.22781	-0.069885	-0.05249	0.074005	0.012817	-0.42923	-0.00351	-0.042114	0.002441	0.009766	0.011749	-0.32028	-0.28122	-0.000916	-0.00824
37.047	-0.019531	0.059052	0.092316	0.003967	0.07019	0.19211	-0.05661	-0.005341	-0.20386	0.022125	0.02243	0.005951	-0.03418	0.13229	0.042572	-0.023193	0.000153	-0.27161	-0.090942	-0.007172	0.060883	0.036011	-0.39337	-0.057983	-0.055084	-0.005951	0.10773	-0.029144	-0.094757	-0.33493	-0.003052	-0.016174
37.048	-0.017395	0.045624	-0.02121	0.012207	-0.021362	0.13062	-0.079956	0.025635	-0.1236	-0.02655	-0.21072	0.011749	0.039368	0.17273	0.05661	-0.037994	0.008392	-0.27268	-0.26077	0.000305	0.048981	0.019684	-0.42099	-0.059662	-0.053253	-0.005951	0.08316	-0.10956	-0.12955	0.01709	-0.00473	-0.01709
37.049	0.006561	0.010071	-0.091248	-0.002136	-0.10056	-0.060577	-0.1149	0.055237	-0.029449	-0.062866	-0.18768	0.01297	0.062256	0.15518	0.3656	-0.022736	0.030823	-0.27268	-0.17105	-0.005951	0.04776	0.00885	-0.43213	0.002289	-0.041962	-0.01709	0.023193	0.036621	-0.18021	0.38879	-0.006561	-0.010223
37.05	0.053711	0.013885	-0.20248	0.005035	-0.079498	-0.30395	-0.25559	0.035858	0.095978	-0.066376	0.079651	0.038605	-0.040436	0.15564	0.14954	-0.056763	0.063171	-0.27237	-0.089874	0.006256	0.01236	0.007629	-0.37598	-0.071716	-0.036011	-0.030518	0.041962	0.018158	-0.25177	0.30441	-0.001526	-0.011139
37.051	0.066986	-0.005646	-0.082855	0.013275	0.018768	-0.44311	-0.37323	-0.005188	0.17441	-0.074615	0.14511	0.025177	-0.10468	0.10681	0.15015	-0.076141	0.089417	-0.22232	-0.053864	-0.039215	-0.015106	-0.058289	-0.36972	-0.093079	-0.041962	-0.070038	0.056305	-0.007172	-0.22781	0.13657	-0.002899	-0.020447
37.052	0.044098	-0.022125	0.14816	0.009918	0.11154	-0.27466	-0.26108	-0.041656	0.094147	-0.084381	0.077209	0.027924	-0.12192	0.10696	-0.00946	-0.081482	0.053711	-0.19791	-0.049744	-0.014648	-0.041656	-0.04425	-0.39078	-0.12756	-0.035858	-0.10452	0.04303	-0.012512	-0.059357	0.096588	-0.002747	-0.018158
37.053	0.024567	-0.11475	0.31143	0.013123	0.090942	-0.19394	-0.33463	-0.050354	-0.058746	-0.094452	-0.001068	0.026093	-0.077972	0.19363	-0.074768	-0.084076	-0.009918	-0.26321	-0.091095	0.069733	-0.10849	-0.077972	-0.39276	-0.081177	-0.029755	-0.047455	0.048981	0.00351	-0.025177	0.075073	-0.002289	-0.010071
37.054	0.023346	-0.15366	0.2063	-0.014038	0.039368	-0.030518	-0.34759	-0.010834	-0.12756	-0.10315	0.081635	0.030212	-0.055389	0.21606	-0.066376	-0.084229	0.015717	-0.32196	-0.11826	0.074768	-0.13611	-0.1976	-0.41855	-0.064087	-0.007172	-0.017853	0.024261	-0.011139	-0.050964	0.024414	-0.001984	-0.001526
37.055	0.016327	-0.14908	0.11673	-0.029907	0.018616	0.10193	-0.24368	0.012665	-0.22797	-0.080414	0.27802	0.029907	-0.077515	0.20416	0.48233	-0.095673	0.016327	-0.34073	-0.09491	-0.066986	-0.1178	-0.24887	-0.46173	-0.050659	0.011139	0.025787	0.013885	-0.014038	-0.02121	0.02655	-0.007935	-0.018616
37.056	0.000916	-0.095367	0.061646	-0.03479	0.020599	0.21744	-0.21698	0.002441	-0.17639	-0.10895	0.2977	0.031586	-0.045471	0.21591	0.24521	-0.088654	0.040741	-0.35217	-0.072174	-0.27359	-0.14526	-0.17899	-0.5069	-0.054169	0.041809	0.033417	-0.017242	0.000458	0.21744	0.032043	0.002289	-0.020142
37.057	0.009918	-0.099487	0.005035	0.007935	0.014343	0.22156	-0.24567	0.002441	-0.13565	-0.097046	0.11261	0.040894	0.026703	0.23193	-0.037384	-0.088196	0.026245	-0.34347	-0.057831	-0.32028	-0.14328	-0.075989	-0.51727	-0.007477	0.026855	0.064087	-0.053558	0.024872	0.28061	0.077057	-0.003052	0.003204
37.058	-0.002899	-0.083008	-0.091858	0.032806	-0.043945	0.15182	-0.29556	-0.002136	-0.07843	-0.081635	-0.16892	0.037842	0.02533	0.21393	0.3157	-0.087128	0.06485	-0.36575	-0.028076	-0.13779	-0.075226	-0.030518	-0.40512	-0.039215	0.018616	0.038757	-0.028839	-0.015106	0.24857	0.19974	-0.006561	0.003204
